<svg xmlns="http://www.w3.org/2000/svg" xmlns:xlink="http://www.w3.org/1999/xlink" viewBox="0 0 678 127.09"><defs><style>.cls-1{fill:#fff;}.cls-2{fill:url(#Gradiente_sem_nome_37);}.cls-3{fill:url(#Gradiente_sem_nome_34);}.cls-4{fill:url(#Gradiente_sem_nome_22);}.cls-5{fill:url(#Gradiente_sem_nome_34-2);}.cls-6{fill:url(#Gradiente_sem_nome_22-2);}.cls-7{fill:url(#Gradiente_sem_nome_34-3);}.cls-8{fill:url(#Gradiente_sem_nome_37-2);}.cls-9{fill:#c00098;}.cls-10{font-size:39.84px;fill:#4b037a;letter-spacing:0.2em;}.cls-10,.cls-13{font-family:MyriadPro-Regular, Myriad Pro;}.cls-11{letter-spacing:0.22em;}.cls-12{fill:#c100b8;letter-spacing:0.2em;}.cls-13{font-size:16.13px;fill:#9b7304;letter-spacing:0.5em;}.cls-14{letter-spacing:0.46em;}.cls-15{letter-spacing:0.44em;}.cls-16{letter-spacing:0.5em;}</style><linearGradient id="Gradiente_sem_nome_37" x1="43.97" y1="97.61" x2="65.74" y2="97.61" gradientTransform="translate(-35.79 31.66) rotate(-24.55)" gradientUnits="userSpaceOnUse"><stop offset="0" stop-color="#662d91"/><stop offset="1" stop-color="#1b1464"/></linearGradient><linearGradient id="Gradiente_sem_nome_34" x1="50.81" y1="92.07" x2="66.72" y2="92.07" gradientUnits="userSpaceOnUse"><stop offset="0" stop-color="#341c73"/><stop offset="1" stop-color="#cd00e8"/></linearGradient><linearGradient id="Gradiente_sem_nome_22" x1="58.57" y1="83.52" x2="120.96" y2="83.52" gradientUnits="userSpaceOnUse"><stop offset="0" stop-color="#fbb03b"/><stop offset="1" stop-color="#1b1464"/></linearGradient><linearGradient id="Gradiente_sem_nome_34-2" x1="80.96" y1="35.7" x2="102.28" y2="35.7" xlink:href="#Gradiente_sem_nome_34"/><linearGradient id="Gradiente_sem_nome_22-2" x1="121.06" y1="99.26" x2="152.15" y2="99.26" xlink:href="#Gradiente_sem_nome_22"/><linearGradient id="Gradiente_sem_nome_34-3" x1="59.74" y1="61.42" x2="104.5" y2="61.42" xlink:href="#Gradiente_sem_nome_34"/><linearGradient id="Gradiente_sem_nome_37-2" x1="80.33" y1="68.91" x2="141.95" y2="68.91" gradientTransform="matrix(1, 0, 0, 1, 0, 0)" xlink:href="#Gradiente_sem_nome_37"/></defs><g id="Camada_2" data-name="Camada 2"><g id="base"><path class="cls-1" d="M678,0V1.79A59.64,59.64,0,0,0,637.43,28.3l-48,74.72a39.77,39.77,0,0,1-33.48,18.16H6a6,6,0,0,0-6,5.91V0Z"/><path class="cls-2" d="M44.9,94.67h19.9a.71.71,0,0,1,.71.71v2.45a3.69,3.69,0,0,1-3.69,3.69H44.9a.71.71,0,0,1-.71-.71V95.38A.71.71,0,0,1,44.9,94.67Z" transform="translate(45.71 -13.92) rotate(24.55)"/><path class="cls-3" d="M62.9,97.77a3.81,3.81,0,0,1-1.58-.34L53,93.64a3.75,3.75,0,0,1-2-2.13,3.81,3.81,0,0,1,5.16-4.8l8.28,3.78a3.82,3.82,0,0,1-.25,7A3.91,3.91,0,0,1,62.9,97.77ZM54.63,87.14a3,3,0,0,0-2.85,4.09,3,3,0,0,0,1.58,1.7l8.28,3.79A3.06,3.06,0,0,0,64,96.8a3,3,0,0,0,1.7-1.58,3,3,0,0,0,.08-2.32,3,3,0,0,0-1.58-1.7l-8.28-3.78A3,3,0,0,0,54.63,87.14Z"/><path class="cls-4" d="M115.93,77.06c-1,.11-2.06.27-3.08.42A23.86,23.86,0,1,1,89.76,59.66a23.77,23.77,0,0,1,12.43,3.49,40.38,40.38,0,0,1,2.31-6.08c0-.33.07-.67.08-1A31.19,31.19,0,1,0,120.26,77,36.83,36.83,0,0,0,115.93,77.06Z"/><path class="cls-5" d="M91.62,26.61a9.1,9.1,0,1,1-9.09,9.09,9.11,9.11,0,0,1,9.09-9.09m0-1.56A10.66,10.66,0,1,0,102.28,35.7,10.66,10.66,0,0,0,91.62,25.05Z"/><path class="cls-6" d="M136.6,83.72a15.55,15.55,0,1,0,15.55,15.54A15.54,15.54,0,0,0,136.6,83.72Zm0,27.18a11.64,11.64,0,1,1,11.64-11.64A11.64,11.64,0,0,1,136.6,110.9Z"/><path class="cls-7" d="M104.5,47.44H87.71a28,28,0,0,0-28,28h0l.07-.1C63.33,62.4,74.48,53,87.71,52.91h15.5A45.78,45.78,0,0,1,104.5,47.44Z"/><path class="cls-8" d="M141,95.26l-23.36-65H105.91L91,75.34a6.94,6.94,0,0,0-4,12.08l-6.66,20.14h10l7-19.54H127.5l1.38,3.71,2.93,8.22a5.86,5.86,0,0,0,7.43,3.71C140.81,102.88,143.35,100.73,141,95.26ZM100.21,75.44l7.37-22.36c1.46-4.71,2.68-9.41,3.8-14h.22c1.12,4.48,2.24,9.06,3.91,14.11l7.38,22.25Z"/><rect class="cls-9" x="99.54" y="80.5" width="25.03" height="1.85" rx="0.59"/><rect class="cls-9" x="106.19" y="33.65" width="10.17" height="1.84" rx="0.59"/><rect class="cls-9" x="95.05" y="66.24" width="61.44" height="1.76" rx="0.56" transform="translate(148 -73.7) rotate(70.88)"/><rect class="cls-9" x="81.35" y="56.73" width="39.9" height="1.76" rx="0.56" transform="translate(14.68 135.56) rotate(-71.61)"/><rect class="cls-9" x="77.97" y="95.97" width="20.66" height="1.76" rx="0.56" transform="translate(-31.47 150.08) rotate(-71.61)"/><path class="cls-9" d="M137.37,97.61a2.1,2.1,0,1,1-2.09,2.09,2.1,2.1,0,0,1,2.09-2.09m0-.36a2.46,2.46,0,1,0,2.46,2.45,2.45,2.45,0,0,0-2.46-2.45Z"/><path class="cls-9" d="M92.39,79.61a2.1,2.1,0,1,1-2.09,2.1,2.1,2.1,0,0,1,2.09-2.1m0-.36a2.46,2.46,0,1,0,2.46,2.46,2.46,2.46,0,0,0-2.46-2.46Z"/><text class="cls-10" transform="translate(159.36 74.84)">ASSISTIV<tspan class="cls-11" x="208.1" y="0">E</tspan><tspan class="cls-12" x="236.3" y="0">TECH</tspan></text><text class="cls-13" transform="translate(160.67 102.33)">TECNO<tspan class="cls-14" x="87.38" y="0">L</tspan><tspan x="102.43" y="0">OGIAS ASSISTI</tspan><tspan class="cls-15" x="303.41" y="0">V</tspan><tspan class="cls-16" x="319.56" y="0">AS</tspan></text></g></g></svg>