<svg xmlns="http://www.w3.org/2000/svg" viewBox="0 0 26.73 26.73"><defs><style>.cls-1{fill:#003849;}</style></defs><g id="Camada_2" data-name="Camada 2"><g id="icons"><path class="cls-1" d="M26.68,10.07c0-.59,0-1.17,0-1.76,0-.42,0-.83-.09-1.25a7.55,7.55,0,0,0-.19-1.25c-.05-.25-.13-.5-.2-.75a7.32,7.32,0,0,0-.35-.88,4.07,4.07,0,0,0-.53-.93,6.63,6.63,0,0,0-.76-.92,6.1,6.1,0,0,0-.59-.55,6.33,6.33,0,0,0-1.06-.71A6.48,6.48,0,0,0,22,.69a10.7,10.7,0,0,0-1.5-.41C20,.19,19.48.16,19,.09c-.31,0-.63,0-.95,0-.59,0-1.19,0-1.78,0-1.86,0-3.72,0-5.58,0,0,0-.1,0-.13,0H9.84A21.71,21.71,0,0,0,7.56.13c-.23,0-.47,0-.7,0A10.65,10.65,0,0,0,5.47.44a1.87,1.87,0,0,0-.65.23c-.05,0-.09,0-.14,0a1,1,0,0,0-.43.19.13.13,0,0,0-.11,0,.06.06,0,0,0-.06,0V1a3.42,3.42,0,0,0-.42.23l0,.09h0l0-.09a.87.87,0,0,0-.27.17.53.53,0,0,0-.2.13,2.6,2.6,0,0,0-.38.27c-.09.07-.19.12-.23.23a0,0,0,0,0,0,0,0,0,0,0,0,0,0,1.13,1.13,0,0,0-.26.23,5.42,5.42,0,0,0-.71.8,4.25,4.25,0,0,0-.44.74,5,5,0,0,0-.5,1.1,3.69,3.69,0,0,0-.25,1h0s0,0,0,0-.07.31-.06.47v.11A1.19,1.19,0,0,0,.18,7,12.32,12.32,0,0,0,.07,8.59a6.28,6.28,0,0,0,0,1v.08h0v.1h0v.1h0v.28a2.81,2.81,0,0,0,0,.65,7,7,0,0,0,0,.92,0,0,0,0,0,0,0c0,.56,0,1.12,0,1.68,0,0,0,.06,0,.1,0,.95,0,1.9,0,2.85,0,.54.05,1.08,0,1.62a.14.14,0,0,0,0,.11s0,0,0,0v.28A6.93,6.93,0,0,0,.19,20,5.77,5.77,0,0,0,.46,21.3c.06.16.11.34.16.51a4.48,4.48,0,0,0,.35.85c.13.21.24.44.36.66,0,.05,0,.12.12.13a.3.3,0,0,0,.1.19l.06,0s0,.1.07.1,0,.09.05.12c.23.21.4.47.64.69a8.59,8.59,0,0,0,1,.84,5.16,5.16,0,0,0,.84.44,4.23,4.23,0,0,0,.62.25q.3.07.6.18a5.86,5.86,0,0,0,.92.22,11.35,11.35,0,0,0,1.43.14l2.5.08c1.51,0,3,0,4.54,0,.06,0,.11,0,.16,0a.37.37,0,0,0,.21,0,1.09,1.09,0,0,0,.36,0,.16.16,0,0,1,.14-.06h0a.16.16,0,0,0-.14.06,4.85,4.85,0,0,0,.66,0s0,0,.06,0h.14a.09.09,0,0,0,.07,0l0,0,0,0h.28l2.49-.09a4.32,4.32,0,0,0,.94-.12,4.9,4.9,0,0,0,.63-.11,3.79,3.79,0,0,1,.4-.12v0a2.27,2.27,0,0,0,.51-.14l.43-.17a1.44,1.44,0,0,0,.55-.28.28.28,0,0,0,.13,0,5.63,5.63,0,0,0,1-.67,6.72,6.72,0,0,0,1-.94,4.65,4.65,0,0,0,.68-1,3.84,3.84,0,0,0,.41-.9h0c0-.05.06-.08,0-.13s0,0,0-.05a2.51,2.51,0,0,0,.16-.46,8.19,8.19,0,0,0,.35-1.69c0-.25,0-.49.06-.74,0-.6.07-1.21.05-1.82v-.1c0-.16,0-.32,0-.48s.07-.13,0-.19l0,0,0,0v0c.06,0,0-.08,0-.13C26.7,14.2,26.77,12.13,26.68,10.07ZM25.84,22.2h0a.07.07,0,0,1,0-.05A.07.07,0,0,0,25.84,22.2Zm-2.05-17h0Zm1.94,12.68s0,0,0,0,0,0,0,0Zm.45.23Zm.48-7.35h0Zm-.12.11h0v0ZM2.47,19.3v0Zm0-.07v0Zm0,.11ZM3.34,1.46v0s0,0,0,0,0,0,0,0Zm.91,1.29v0Zm.89-1.39h0ZM3.35,2.42h0Zm-3,13h0Zm.63.22H1ZM1,15.51H1Zm1,3.67h0v0ZM.77,5ZM.08,13.41v0ZM1,18.89A.3.3,0,0,1,1,19a.3.3,0,0,0,0-.1Zm1.16.29Zm.31-.48v0Zm0,0,0,0Zm0-5.93h0v0Zm0-4Zm0,.26ZM4.08,1V1Zm-.79.46h0ZM2.65,2ZM.77,19.19a.05.05,0,0,0,0,0h0A.05.05,0,0,1,.77,19.19ZM2.18,24s0,0,0,0,0,0,0,0,0,0,0,0S2.18,24,2.18,24Zm.41-.11Zm0,.05h0a0,0,0,0,0,.05-.05A0,0,0,0,1,2.63,24ZM8,25.26H8Zm3.05.17.06,0Zm.09.08h0s-.07,0-.07,0S11.15,25.51,11.18,25.51Zm0,0c.06,0,.07-.07.09-.12S11.28,25.5,11.22,25.51Zm6.22-1,0,0,0,0Zm0,0h0Zm6.69-4.72a6.74,6.74,0,0,1-.37,1.47,4.23,4.23,0,0,1-1,1.51,5.33,5.33,0,0,1-.62.54,4.48,4.48,0,0,1-1.11.57,4.61,4.61,0,0,1-.73.19s-.07,0-.08.06,0,.16-.08.18.1-.08.08-.18h-.09v0l-.38.06c-1.38.12-2.77.15-4.15.16H9.83c-.74,0-1.49-.05-2.23-.09a7.35,7.35,0,0,1-1-.13,5.82,5.82,0,0,1-.93-.26A6,6,0,0,1,5,23.58a3.85,3.85,0,0,1-1-.72,5.86,5.86,0,0,1-.73-.93,4.29,4.29,0,0,1-.47-1.13c-.13-.42-.17-.86-.26-1.29l0,0,0,0a.26.26,0,0,0,0-.15h0c0-.07,0-.15,0-.21v-.39h0v-.3h0c0-.48,0-1,0-1.45a8.44,8.44,0,0,0,0-.87v-.06a1.93,1.93,0,0,0,0-.24c0-1.61,0-3.22,0-4.84a7.48,7.48,0,0,0,0-.82v-.07h0v0h0s0,0,0-.06v0h0l0,0,0,0v0s0,0,0,0v0h0v0s0,0,0,0,0,0,0,0v0h0a0,0,0,0,0,0-.05v0h0v0l0,0,0,0v0h0a0,0,0,0,0,0-.05v0h0v0l0,0,0,0v0h0a.16.16,0,0,0,0-.15.08.08,0,0,0,0-.08.38.38,0,0,0,0-.15,1,1,0,0,0,0-.3h0c.05,0,0-.07,0-.11,0-.32,0-.65,0-1a6.36,6.36,0,0,1,.11-1.07V6.6c.1-.12.08-.28.11-.42a5.39,5.39,0,0,1,.48-1.25l.07-.13,0,0a.05.05,0,0,1,0,0,.05.05,0,0,0,0,0l0,0a5.27,5.27,0,0,1,.52-.72l0,0h0A.59.59,0,0,0,4,3.88a2.85,2.85,0,0,1,.67-.53s0-.06.08-.1a2.76,2.76,0,0,0,.39-.18h0a.42.42,0,0,0,.15,0A4.66,4.66,0,0,1,6,2.76c.22-.07.45-.08.66-.17a1.25,1.25,0,0,0,.47-.07h.24c.06,0,.11,0,.16,0s.09,0,.14,0h.54c.39,0,.78,0,1.17,0,.81-.07,1.62,0,2.43,0,1.64,0,3.28,0,4.92,0,.27,0,.55,0,.82,0s.6,0,.89,0l0,0,0,0h.65s.11,0,.16,0a6.8,6.8,0,0,1,1.42.24,4.55,4.55,0,0,1,1.66.79c.2.16.39.34.59.51,0,.06,0,.13.12.15h0a4.84,4.84,0,0,1,.62,1,5.6,5.6,0,0,1,.4,1.26,7.14,7.14,0,0,1,.14,1s0,.07,0,.1h0l.06,1.93a.09.09,0,0,0,0,.07c0,2.44,0,4.89,0,7.33,0,.74,0,1.49-.09,2.23,0,.21,0,.43-.06.64l0,0ZM3.82,4h0ZM24.57,20.34s0,0,0,0,.06,0,.07,0h0s-.05,0-.07,0S24.57,20.35,24.57,20.34Z"/><path class="cls-1" d="M20.06,11.87a6.36,6.36,0,0,0-.32-1,1.76,1.76,0,0,0-.29-.56,3.36,3.36,0,0,0-.37-.67,6.93,6.93,0,0,0-.95-1.14A3.49,3.49,0,0,0,17.54,8a1.35,1.35,0,0,0-.33-.26,2.92,2.92,0,0,0-.57-.33h0a.84.84,0,0,0-.35-.21,6.62,6.62,0,0,0-1.2-.43A4.66,4.66,0,0,0,14,6.56a3.76,3.76,0,0,0-1.11,0,6.4,6.4,0,0,0-1.5.28,3.93,3.93,0,0,0-.8.32,2.49,2.49,0,0,0-.52.25h0s-.06,0-.07,0h0a1.87,1.87,0,0,1-.38.24,7.21,7.21,0,0,0-.75.59,2.12,2.12,0,0,0-.48.51h0a.13.13,0,0,0-.06.07c-.06,0-.06.06-.09.09A.62.62,0,0,0,8,9.19a5.3,5.3,0,0,0-.71,1.1,4.35,4.35,0,0,0-.27.58,7,7,0,0,0-.24.78,6.35,6.35,0,0,0-.18,1.06.33.33,0,0,0,0,.24.2.2,0,0,0,0,.15,4.18,4.18,0,0,0,0,1.17,4.85,4.85,0,0,0,.19.92h0a3.62,3.62,0,0,0,.2.61,6.29,6.29,0,0,0,.43.91l.11.19,0,0h0c0,.07,0,.15.11.21s0,0,0,0h0s0,.1.08.12l0,0a.27.27,0,0,0,.1.11h0a1,1,0,0,0,.3.38s0,0,0,0a1.83,1.83,0,0,0,.48.48l.07.08a.11.11,0,0,0,.11.08h0a1.46,1.46,0,0,0,.44.38c.11.09.24.15.35.23a3.28,3.28,0,0,0,.62.37c.25.13.52.24.79.35a6.4,6.4,0,0,0,1.72.39,5.55,5.55,0,0,0,1.35,0A8.65,8.65,0,0,0,15.23,20l.66-.22c.13,0,.25-.13.38-.19h0l.05,0a.07.07,0,0,0,.06,0h0a.36.36,0,0,0,.2-.11,1.43,1.43,0,0,0,.46-.27,3.5,3.5,0,0,0,.79-.58,4.3,4.3,0,0,0,.64-.64c.09-.12.22-.19.26-.34.1,0,.09-.09.13-.14a6.07,6.07,0,0,0,.86-1.58.11.11,0,0,0,0-.1c.06,0,0-.09.05-.14a1.26,1.26,0,0,0,.16-.46c.06-.28.12-.55.16-.83a4.14,4.14,0,0,0,0-.93v-.11A5.36,5.36,0,0,0,20.06,11.87Zm-.84-.46h0v0Zm-.85,2.37.14,0h-.14c0-.1-.09-.16-.09-.26C18.28,13.62,18.39,13.68,18.37,13.78ZM18,13.15v0h0Zm0,0c-.06-.05-.06,0-.09.08a1,1,0,0,0,0-.31A.79.79,0,0,0,18,13.17Zm.47,4.19a.2.2,0,0,1,0,.07.2.2,0,0,0,0-.07Zm1.59-5.14h0a.36.36,0,0,0-.07.1A.36.36,0,0,1,20.05,12.22Zm-4.43-3h0Zm.54-1.4v0Zm1.31.2h0Zm-.4-.11h0Zm-.52-.4,0,0Zm-.42,0a.05.05,0,0,0,0,0h0A.05.05,0,0,1,16.13,7.42Zm-.06,0Zm-.53.08ZM13.7,6.8h0v0ZM11.77,8.4h0ZM9.89,10.47l0,0ZM9.11,9.11h0ZM9,16.83H9Zm-.2-1.24h0ZM7,15.24H7l.11-.05h0Zm0,0H7l0,.12Zm.56,1.61h0Zm3.33.27a.35.35,0,0,0-.16-.08.08.08,0,0,1,0,.06.08.08,0,0,0,0-.06c0-.1-.15-.14-.23-.2s0-.08-.1-.08h0l0,0a5.56,5.56,0,0,1-.76-.91c0-.05,0-.13-.12-.16h0l0-.06a.21.21,0,0,0-.06-.1,5.58,5.58,0,0,1-.48-1.39.1.1,0,0,0,0-.09.22.22,0,0,1,0-.12.22.22,0,0,0,0,.12.12.12,0,0,0,0-.16c0-.11,0-.21,0-.32a4.49,4.49,0,0,1,.77-2.68l.21-.3h0c.22-.23.44-.47.68-.69h0l.54-.38h0a1.29,1.29,0,0,0,.33-.17.13.13,0,0,0,.11-.05h0L12,9.11a4.22,4.22,0,0,1,1.54-.21h.27c.07.08.16,0,.24,0a3.18,3.18,0,0,1,.79.21,4.92,4.92,0,0,1,.87.41c.13.07.25.17.37.25s.06.06.1,0,.05.1.11.1l0,0h0c0,.05,0,.07.09.09s0,.08.09.09l0,0a.07.07,0,0,0,.06.07h0l0,0a.05.05,0,0,0,0,0h0c.13.17.25.34.39.51a4.3,4.3,0,0,0,.29.45h0a.31.31,0,0,0,.09.2,6.79,6.79,0,0,1,.32,1.06,4.05,4.05,0,0,1,.05,1.25,3.67,3.67,0,0,1-.27,1.12s0,.08,0,.12h0a.55.55,0,0,0-.12.27h0a.43.43,0,0,0-.14.23s0,0,0,.08-.1.14-.13.22-.06,0-.05.05v0s-.12.08-.12.16h0a.58.58,0,0,0-.18.23.23.23,0,0,0-.12.12.19.19,0,0,0,0,.12.19.19,0,0,1,0-.12c-.17.11-.3.28-.47.41a4.83,4.83,0,0,1-1,.63,1.51,1.51,0,0,0-.18.09c-.21,0-.4.13-.61.16a7.39,7.39,0,0,1-.82.14.13.13,0,0,0,0,.06.13.13,0,0,1,0-.06h-.06a.07.07,0,0,1-.05.07.07.07,0,0,0,.05-.07.5.5,0,0,0-.21,0h-.12a0,0,0,0,1,0,0,0,0,0,0,0,0,0h-.06a4.61,4.61,0,0,1-1.38-.31A3.59,3.59,0,0,1,10.93,17.13Zm6,1.42h0Zm-1.81.4v0h0Zm.41.05a0,0,0,0,1,0,0h0A0,0,0,0,0,15.53,19Zm.6-.92v0s0,0,0,0,0,0,0,0Zm-.87,1h0Z"/><path class="cls-1" d="M22.07,6.06c0-.07,0-.13,0-.19A1.61,1.61,0,0,0,21.48,5a1.44,1.44,0,0,0-.81-.32,1.41,1.41,0,0,0-1,.23,1.18,1.18,0,0,0-.51.48s0,0,0,0h0c-.12.06-.11.2-.15.31a1.49,1.49,0,0,0,0,1,1.53,1.53,0,0,0,1.15,1,1.48,1.48,0,0,0,1-.12,1.51,1.51,0,0,0,.88-1.16s0-.1,0-.15A.71.71,0,0,0,22.07,6.06ZM20.54,7.33h0Zm-1.39-.8h0l0,0Z"/></g></g></svg>