<svg xmlns="http://www.w3.org/2000/svg" viewBox="0 0 26.63 26.84"><defs><style>.cls-1{fill:#003849;}</style></defs><g id="Camada_2" data-name="Camada 2"><g id="icons"><path class="cls-1" d="M0,26.84c.16-.49.3-.92.45-1.35C1.07,23.65,1.69,21.82,2.3,20a.42.42,0,0,0,0-.27A12.47,12.47,0,0,1,.61,15,12.8,12.8,0,0,1,4.87,3.31,12.43,12.43,0,0,1,12.62,0a12.71,12.71,0,0,1,8.7,2.54,12.68,12.68,0,0,1,5.05,8,12.75,12.75,0,0,1-2.06,10,12.55,12.55,0,0,1-6.56,5,12.84,12.84,0,0,1-9.23-.31c-.39-.16-.76-.36-1.14-.53a.5.5,0,0,0-.34,0L.42,26.71Zm3.34-3.3.33-.09,3.69-1.19a.37.37,0,0,1,.34,0,10.53,10.53,0,0,0,8.73,1.31A10.54,10.54,0,0,0,24,16.35a10.33,10.33,0,0,0-1.08-8.93,10.65,10.65,0,0,0-8.68-5.24A10.45,10.45,0,0,0,8.42,3.44,10.77,10.77,0,0,0,3.35,9.2,10.92,10.92,0,0,0,4.57,19.3a.45.45,0,0,1,.07.33c-.34,1.05-.7,2.1-1,3.15C3.51,23,3.44,23.25,3.34,23.54Z"/><path class="cls-1" d="M17.23,19.64a5.31,5.31,0,0,1-1.8-.41,14.39,14.39,0,0,1-2.95-1.37,13.79,13.79,0,0,1-3.91-4.07A16.22,16.22,0,0,1,7.48,11.9a4.3,4.3,0,0,1-.29-3.13A3.79,3.79,0,0,1,8.45,6.94a1.07,1.07,0,0,1,.86-.24,3.27,3.27,0,0,0,.54,0,.6.6,0,0,1,.64.45l.63,1.69c.12.32.23.64.36,1a.59.59,0,0,1,0,.63c-.27.36-.55.72-.85,1s-.31.42-.12.78a9,9,0,0,0,4.06,3.92l.43.21a.48.48,0,0,0,.62-.12c.35-.39.71-.79,1.05-1.19s.42-.4.82-.2c.69.34,1.37.71,2.06,1.07l.58.31a.44.44,0,0,1,.23.43,2.57,2.57,0,0,1-1.89,2.62A7.57,7.57,0,0,1,17.23,19.64Z"/></g></g></svg>