<svg xmlns="http://www.w3.org/2000/svg" viewBox="0 0 27 19.08"><defs><style>.cls-1{fill:#003849;}</style></defs><g id="Camada_2" data-name="Camada 2"><g id="icons"><path class="cls-1" d="M0,13.81V5.27C.05,5,.08,4.7.14,4.42A5.59,5.59,0,0,1,5.7,0H21.31a5.45,5.45,0,0,1,1.28.13A5.56,5.56,0,0,1,27,5.65c0,2.6,0,5.19,0,7.78a5.36,5.36,0,0,1-.74,2.82,5.49,5.49,0,0,1-5,2.83c-5.18,0-10.37,0-15.55,0h-.4A5.57,5.57,0,0,1,.21,14.92C.12,14.56.07,14.18,0,13.81ZM9.79,9.54V13c0,.48.17.6.6.39L17.44,10c.17-.08.37-.16.32-.37a.64.64,0,0,0-.31-.34L10.38,5.72c-.4-.21-.59-.09-.59.36Z"/></g></g></svg>