<svg xmlns="http://www.w3.org/2000/svg" xmlns:xlink="http://www.w3.org/1999/xlink" viewBox="0 0 1080 1080"><defs><style>.cls-1,.cls-13{fill:#fff;}.cls-2{fill:url(#Gradiente_sem_nome_13);}.cls-3{fill:url(#Gradiente_sem_nome_34);}.cls-4{fill:url(#Gradiente_sem_nome_22);}.cls-5{fill:url(#Gradiente_sem_nome_34-2);}.cls-6{fill:url(#Gradiente_sem_nome_22-2);}.cls-7{fill:url(#Gradiente_sem_nome_34-3);}.cls-8{fill:url(#Gradiente_sem_nome_13-2);}.cls-9{fill:#c00098;}.cls-10{font-size:98.74px;fill:#4b037a;letter-spacing:0.2em;}.cls-10,.cls-13,.cls-17{font-family:MyriadPro-Regular, Myriad Pro;}.cls-11{letter-spacing:0.22em;}.cls-12{fill:#c100b8;}.cls-13,.cls-17{font-size:40.98px;letter-spacing:0.5em;}.cls-14{letter-spacing:0.46em;}.cls-15{letter-spacing:0.5em;}.cls-16{letter-spacing:0.44em;}.cls-17{fill:#9b7304;}</style><linearGradient id="Gradiente_sem_nome_13" x1="191.1" y1="531.94" x2="309.68" y2="531.94" gradientTransform="translate(-199.97 152.46) rotate(-24.55)" gradientUnits="userSpaceOnUse"><stop offset="0" stop-color="#662d91"/><stop offset="1" stop-color="#1b1464"/></linearGradient><linearGradient id="Gradiente_sem_nome_34" x1="228.12" y1="502.69" x2="315.62" y2="502.69" gradientUnits="userSpaceOnUse"><stop offset="0" stop-color="#341c73"/><stop offset="1" stop-color="#cd00e8"/></linearGradient><linearGradient id="Gradiente_sem_nome_22" x1="270.82" y1="455.7" x2="613.81" y2="455.7" gradientUnits="userSpaceOnUse"><stop offset="0" stop-color="#fbb03b"/><stop offset="1" stop-color="#1b1464"/></linearGradient><linearGradient id="Gradiente_sem_nome_34-2" x1="393.93" y1="192.81" x2="511.13" y2="192.81" xlink:href="#Gradiente_sem_nome_34"/><linearGradient id="Gradiente_sem_nome_22-2" x1="614.35" y1="542.25" x2="785.3" y2="542.25" xlink:href="#Gradiente_sem_nome_22"/><linearGradient id="Gradiente_sem_nome_34-3" x1="277.27" y1="334.2" x2="523.34" y2="334.2" xlink:href="#Gradiente_sem_nome_34"/><linearGradient id="Gradiente_sem_nome_13-2" x1="390.46" y1="375.34" x2="729.25" y2="375.34" gradientTransform="matrix(1, 0, 0, 1, 0, 0)" xlink:href="#Gradiente_sem_nome_13"/></defs><g id="Camada_1" data-name="Camada 1"><rect class="cls-1" width="1080" height="1080"/><path class="cls-2" d="M197.43,517H303.35a5.63,5.63,0,0,1,5.63,5.63v2.63a29.37,29.37,0,0,1-29.37,29.37h-82.2a5.63,5.63,0,0,1-5.63-5.63V522.62a5.63,5.63,0,0,1,5.63-5.63Z" transform="translate(245.24 -55.6) rotate(24.55)"/><path class="cls-3" d="M294.63,534.06a20.91,20.91,0,0,1-8.7-1.91l-45.54-20.8a21,21,0,1,1,17.42-38.14L303.35,494a21,21,0,0,1-8.72,40Zm-45.5-58.44a16.7,16.7,0,0,0-15.19,9.74,16.68,16.68,0,0,0,8.24,22.08l45.54,20.8a16.66,16.66,0,1,0,13.84-30.32L256,477.12A16.62,16.62,0,0,0,249.13,475.62Z"/><path class="cls-4" d="M586.17,420.17c-5.67.59-11.31,1.47-16.95,2.29a131.24,131.24,0,1,1-58.6-78.74c2.58-11.62,8.26-22.34,12.68-33.44a46.67,46.67,0,0,0,.45-5.51A171.23,171.23,0,1,0,610,419.57,208,208,0,0,0,586.17,420.17Z"/><path class="cls-5" d="M452.53,142.81a50,50,0,1,1-50,50,50.06,50.06,0,0,1,50-50m0-8.6a58.6,58.6,0,1,0,58.6,58.6,58.6,58.6,0,0,0-58.6-58.6Z"/><path class="cls-6" d="M699.83,456.77a85.48,85.48,0,1,0,85.47,85.48A85.48,85.48,0,0,0,699.83,456.77Zm0,149.45a64,64,0,1,1,64-64A64,64,0,0,1,699.83,606.22Z"/><path class="cls-7" d="M523.34,257.32H431A153.75,153.75,0,0,0,277.27,411.07h0l.38-.53C297,339.57,358.29,288,431,287.43h85.21C518.19,277.25,520.12,267.12,523.34,257.32Z"/><path class="cls-8" d="M724,520.21,595.55,162.81H531.07l-82,247.89a38.16,38.16,0,0,0-22,66.45L390.46,587.88h55.26L484.4,480.42H649.77l7.59,20.43L673.48,546c8.73,23,32.26,24.73,40.86,20.43S736.92,550.31,724,520.21ZM499.76,411.29l40.52-123c8-25.85,14.74-51.71,20.88-76.94h1.23c6.14,24.6,12.28,49.82,21.49,77.57l40.53,122.35Z"/><rect class="cls-9" x="496.07" y="439.09" width="137.63" height="10.15" rx="4.5"/><rect class="cls-9" x="534.13" y="183.02" width="55.91" height="10.14" rx="4.72"/><rect class="cls-9" x="471.4" y="360.7" width="337.78" height="9.68" rx="4.5" transform="translate(775.98 -359.16) rotate(70.88)"/><rect class="cls-9" x="396.08" y="308.39" width="219.34" height="9.68" rx="4.5" transform="translate(48.97 694.34) rotate(-71.61)"/><rect class="cls-9" x="377.44" y="524.15" width="113.58" height="9.68" rx="4.5" transform="translate(-204.74 774.17) rotate(-71.61)"/><path class="cls-9" d="M704.06,533.13a11.52,11.52,0,1,1-11.52,11.52,11.53,11.53,0,0,1,11.52-11.52m0-2a13.51,13.51,0,1,0,13.51,13.5,13.5,13.5,0,0,0-13.51-13.5Z"/><path class="cls-9" d="M456.77,434.21a11.52,11.52,0,1,1-11.53,11.52,11.54,11.54,0,0,1,11.53-11.52m0-2a13.51,13.51,0,1,0,13.5,13.5,13.51,13.51,0,0,0-13.5-13.5Z"/></g><g id="Camada_2" data-name="Camada 2"><text class="cls-10" transform="translate(98 789.3)">ASSISTIV<tspan class="cls-11" x="515.81" y="0">E</tspan><tspan class="cls-12" x="585.71" y="0">TECH</tspan></text><text class="cls-13" transform="translate(95.04 862.84)">TECNO<tspan class="cls-14" x="221.95" y="0">L</tspan><tspan class="cls-15" x="260.18" y="0">OGIAS ASSISTI</tspan><tspan class="cls-16" x="770.67" y="0">V</tspan><tspan class="cls-15" x="811.69" y="0">AS</tspan></text><text class="cls-17" transform="translate(95.04 862.84)">TECNO<tspan class="cls-14" x="221.95" y="0">L</tspan><tspan class="cls-15" x="260.18" y="0">OGIAS ASSISTI</tspan><tspan class="cls-16" x="770.67" y="0">V</tspan><tspan class="cls-15" x="811.69" y="0">AS</tspan></text></g></svg>